v  0.0000 0.0000 1.8576
v  -0.8572 -0.0000 1.6299
v  -0.6061 -0.6724 1.6299
v  -1.1806 -1.1806 0.9981
v  -1.6696 -0.0000 0.9981
v  -1.5251 -1.5251 -0.0886
v  -2.1568 0.0000 -0.0886
v  -1.5817 -1.5817 -1.2393
v  -2.2368 0.0000 -1.2393
v  -1.2937 -1.2937 -2.1678
v  -1.8296 0.0000 -2.1678
v  0.0000 -0.9509 1.6299
v  0.0000 -1.6696 0.9981
v  0.0000 -2.1568 -0.0886
v  -0.0000 -2.2368 -1.2393
v  -0.0000 -1.8296 -2.1678
v  0.0000 0.0000 1.8576
v  0.0000 -0.9509 1.6299
v  0.6061 -0.6724 1.6299
v  1.1806 -1.1806 0.9981
v  0.0000 -1.6696 0.9981
v  1.5251 -1.5251 -0.0886
v  0.0000 -2.1568 -0.0886
v  1.5817 -1.5817 -1.2393
v  -0.0000 -2.2368 -1.2393
v  1.2937 -1.2937 -2.1678
v  -0.0000 -1.8296 -2.1678
v  0.8572 0.0000 1.6299
v  1.6696 0.0000 0.9981
v  2.1568 0.0000 -0.0886
v  2.2368 -0.0000 -1.2393
v  1.8296 -0.0000 -2.1678
v  0.8572 0.0000 1.6299
v  0.6061 0.6724 1.6299
v  1.1806 1.1806 0.9981
v  1.6696 0.0000 0.9981
v  1.5251 1.5251 -0.0886
v  2.1568 0.0000 -0.0886
v  1.5817 1.5817 -1.2393
v  2.2368 -0.0000 -1.2393
v  1.2937 1.2937 -2.1678
v  1.8296 -0.0000 -2.1678
v  -0.0000 0.9509 1.6299
v  -0.0000 1.6696 0.9981
v  -0.0000 2.1568 -0.0886
v  0.0000 2.2368 -1.2393
v  0.0000 1.8296 -2.1678
v  -0.0000 0.9509 1.6299
v  -0.6061 0.6724 1.6299
v  -1.1806 1.1806 0.9981
v  -0.0000 1.6696 0.9981
v  -1.5251 1.5251 -0.0886
v  -0.0000 2.1568 -0.0886
v  -1.5817 1.5817 -1.2393
v  0.0000 2.2368 -1.2393
v  -1.2937 1.2937 -2.1678
v  0.0000 1.8296 -2.1678
v  -0.8572 -0.0000 1.6299
v  -1.6696 -0.0000 0.9981
v  -2.1568 0.0000 -0.0886
v  -2.2368 0.0000 -1.2393
v  -1.8296 0.0000 -2.1678
v  2.0944 0.0122 -0.5357
v  1.8223 0.0106 -1.5096
v  -0.0106 1.8223 -1.5096
v  -0.0122 2.0944 -0.5357
v  1.1670 0.0068 -2.2954
v  -0.0068 1.1670 -2.2954
v  0.0122 -2.0944 -0.5357
v  0.0106 -1.8223 -1.5096
v  1.8223 0.0106 -1.5096
v  2.0944 0.0122 -0.5357
v  0.0068 -1.1670 -2.2954
v  1.1670 0.0068 -2.2954
v  -2.0944 -0.0122 -0.5357
v  -1.8223 -0.0106 -1.5096
v  0.0106 -1.8223 -1.5096
v  0.0122 -2.0944 -0.5357
v  -1.1670 -0.0068 -2.2954
v  0.0068 -1.1670 -2.2954
v  -0.0122 2.0944 -0.5357
v  -0.0106 1.8223 -1.5096
v  -1.8223 -0.0106 -1.5096
v  -2.0944 -0.0122 -0.5357
v  -0.0068 1.1670 -2.2954
v  -1.1670 -0.0068 -2.2954

vn  0.0000 0.0000 1.0000
vn  -0.4821 -0.0053 0.8761
vn  -0.3562 -0.3452 0.8683
vn  -0.5777 -0.5719 0.5824
vn  -0.8084 -0.0015 0.5886
vn  -0.6876 -0.6876 0.2335
vn  -0.9724 -0.0000 0.2335
vn  -0.6978 -0.6978 -0.1620
vn  -0.9868 -0.0000 -0.1620
vn  -0.6476 -0.6476 -0.4017
vn  -0.9158 0.0000 -0.4017
vn  -0.0066 -0.5051 0.8630
vn  -0.0016 -0.8204 0.5718
vn  0.0000 -0.9724 0.2335
vn  -0.0000 -0.9868 -0.1620
vn  -0.0000 -0.9158 -0.4017
vn  0.0000 0.0000 1.0000
vn  -0.0066 -0.5051 0.8630
vn  0.3520 -0.3400 0.8720
vn  0.5795 -0.5737 0.5789
vn  -0.0016 -0.8204 0.5718
vn  0.6876 -0.6876 0.2335
vn  0.0000 -0.9724 0.2335
vn  0.6978 -0.6978 -0.1620
vn  -0.0000 -0.9868 -0.1620
vn  0.6476 -0.6476 -0.4017
vn  -0.0000 -0.9158 -0.4017
vn  0.4821 0.0053 0.8761
vn  0.8084 0.0015 0.5886
vn  0.9724 0.0000 0.2335
vn  0.9868 -0.0000 -0.1620
vn  0.9158 -0.0000 -0.4017
vn  0.4821 0.0053 0.8761
vn  0.3562 0.3452 0.8683
vn  0.5777 0.5719 0.5824
vn  0.8084 0.0015 0.5886
vn  0.6876 0.6876 0.2335
vn  0.9724 0.0000 0.2335
vn  0.6978 0.6978 -0.1620
vn  0.9868 -0.0000 -0.1620
vn  0.6476 0.6476 -0.4017
vn  0.9158 -0.0000 -0.4017
vn  0.0066 0.5051 0.8630
vn  0.0016 0.8204 0.5718
vn  -0.0000 0.9724 0.2335
vn  0.0000 0.9868 -0.1620
vn  0.0000 0.9158 -0.4017
vn  0.0066 0.5051 0.8630
vn  -0.3520 0.3400 0.8720
vn  -0.5795 0.5737 0.5789
vn  0.0016 0.8204 0.5718
vn  -0.6876 0.6876 0.2335
vn  -0.0000 0.9724 0.2335
vn  -0.6978 0.6978 -0.1620
vn  0.0000 0.9868 -0.1620
vn  -0.6476 0.6476 -0.4017
vn  0.0000 0.9158 -0.4017
vn  -0.4821 -0.0053 0.8761
vn  -0.8084 -0.0015 0.5886
vn  -0.9724 -0.0000 0.2335
vn  -0.9868 -0.0000 -0.1620
vn  -0.9158 0.0000 -0.4017
vn  0.9631 0.0056 -0.2691
vn  0.9030 0.0052 -0.4297
vn  -0.0052 0.9030 -0.4297
vn  -0.0056 0.9631 -0.2691
vn  0.7680 0.0045 -0.6404
vn  -0.0045 0.7680 -0.6404
vn  0.0056 -0.9631 -0.2691
vn  0.0052 -0.9030 -0.4297
vn  0.9030 0.0052 -0.4297
vn  0.9631 0.0056 -0.2691
vn  0.0045 -0.7680 -0.6404
vn  0.7680 0.0045 -0.6404
vn  -0.9631 -0.0056 -0.2691
vn  -0.9030 -0.0052 -0.4297
vn  0.0052 -0.9030 -0.4297
vn  0.0056 -0.9631 -0.2691
vn  -0.7680 -0.0045 -0.6404
vn  0.0045 -0.7680 -0.6404
vn  -0.0056 0.9631 -0.2691
vn  -0.0052 0.9030 -0.4297
vn  -0.9030 -0.0052 -0.4297
vn  -0.9631 -0.0056 -0.2691
vn  -0.0045 0.7680 -0.6404
vn  -0.7680 -0.0045 -0.6404

vt  0.2503 0.2495
vt  0.1594 0.3431
vt  0.2503 0.3652
vt  0.2503 0.4974
vt  0.0785 0.4753
vt  0.2503 0.6547
vt  0.0218 0.6547
vt  0.2503 0.8383
vt  0.0032 0.8383
vt  0.2503 0.9987
vt  0.0444 0.9987
vt  0.3433 0.3431
vt  0.4233 0.4753
vt  0.4786 0.6547
vt  0.4957 0.8383
vt  0.4532 0.9987
vt  0.7489 0.2495
vt  0.6579 0.3431
vt  0.7489 0.3652
vt  0.7489 0.4974
vt  0.5770 0.4753
vt  0.7489 0.6547
vt  0.5203 0.6547
vt  0.7489 0.8383
vt  0.5017 0.8383
vt  0.7489 0.9987
vt  0.5429 0.9987
vt  0.8418 0.3431
vt  0.9218 0.4753
vt  0.9771 0.6547
vt  0.9942 0.8383
vt  0.9517 0.9987
vt  0.1594 0.3431
vt  0.2503 0.3652
vt  0.2503 0.4974
vt  0.0785 0.4753
vt  0.2503 0.6547
vt  0.0218 0.6547
vt  0.2503 0.8383
vt  0.0032 0.8383
vt  0.2503 0.9987
vt  0.0444 0.9987
vt  0.3433 0.3431
vt  0.4233 0.4753
vt  0.4786 0.6547
vt  0.4957 0.8383
vt  0.4532 0.9987
vt  0.6579 0.3431
vt  0.7489 0.3652
vt  0.7489 0.4974
vt  0.5770 0.4753
vt  0.7489 0.6547
vt  0.5203 0.6547
vt  0.7489 0.8383
vt  0.5017 0.8383
vt  0.7489 0.9987
vt  0.5429 0.9987
vt  0.8418 0.3431
vt  0.9218 0.4753
vt  0.9771 0.6547
vt  0.9942 0.8383
vt  0.9517 0.9987
vt  0.1366 0.5499
vt  0.1788 0.7900
vt  0.7438 0.7900
vt  0.7859 0.5499
vt  0.2804 0.9986
vt  0.6422 0.9986
vt  0.1160 0.5321
vt  0.1601 0.7831
vt  0.7509 0.7831
vt  0.7950 0.5321
vt  0.2663 1.0013
vt  0.6447 1.0013
vt  0.1366 0.5499
vt  0.1788 0.7900
vt  0.7438 0.7900
vt  0.7859 0.5499
vt  0.2804 0.9986
vt  0.6422 0.9986
vt  0.1160 0.5321
vt  0.1601 0.7831
vt  0.7509 0.7831
vt  0.7950 0.5321
vt  0.2663 1.0013
vt  0.6447 1.0013

f  64/64/64 67/67/67 68/68/68
f  68/68/68 65/65/65 64/64/64
f  63/63/63 64/64/64 65/65/65
f  65/65/65 66/66/66 63/63/63
f  82/82/82 85/85/85 86/86/86
f  86/86/86 83/83/83 82/82/82
f  81/81/81 82/82/82 83/83/83
f  83/83/83 84/84/84 81/81/81
f  76/76/76 79/79/79 80/80/80
f  80/80/80 77/77/77 76/76/76
f  75/75/75 76/76/76 77/77/77
f  77/77/77 78/78/78 75/75/75
f  70/70/70 73/73/73 74/74/74
f  74/74/74 71/71/71 70/70/70
f  69/69/69 70/70/70 71/71/71
f  71/71/71 72/72/72 69/69/69
f  48/48/48 51/51/51 50/50/50
f  50/50/50 49/49/49 48/48/48
f  17/17/17 48/48/48 49/49/49
f  49/49/49 58/58/58 17/17/17
f  59/59/59 58/58/58 49/49/49
f  49/49/49 50/50/50 59/59/59
f  60/60/60 59/59/59 50/50/50
f  50/50/50 52/52/52 60/60/60
f  61/61/61 60/60/60 52/52/52
f  52/52/52 54/54/54 61/61/61
f  62/62/62 61/61/61 54/54/54
f  54/54/54 56/56/56 62/62/62
f  56/56/56 54/54/54 55/55/55
f  55/55/55 57/57/57 56/56/56
f  52/52/52 50/50/50 51/51/51
f  51/51/51 53/53/53 52/52/52
f  54/54/54 52/52/52 53/53/53
f  53/53/53 55/55/55 54/54/54
f  21/21/21 23/23/23 22/22/22
f  22/22/22 20/20/20 21/21/21
f  18/18/18 21/21/21 20/20/20
f  20/20/20 19/19/19 18/18/18
f  17/17/17 18/18/18 19/19/19
f  17/17/17 19/19/19 28/28/28
f  29/29/29 28/28/28 19/19/19
f  19/19/19 20/20/20 29/29/29
f  30/30/30 29/29/29 20/20/20
f  20/20/20 22/22/22 30/30/30
f  31/31/31 30/30/30 22/22/22
f  22/22/22 24/24/24 31/31/31
f  32/32/32 31/31/31 24/24/24
f  24/24/24 26/26/26 32/32/32
f  26/26/26 24/24/24 25/25/25
f  25/25/25 27/27/27 26/26/26
f  24/24/24 22/22/22 23/23/23
f  23/23/23 25/25/25 24/24/24
f  39/39/39 37/37/37 38/38/38
f  38/38/38 40/40/40 39/39/39
f  36/36/36 38/38/38 37/37/37
f  37/37/37 35/35/35 36/36/36
f  33/33/33 36/36/36 35/35/35
f  35/35/35 34/34/34 33/33/33
f  1/1/1 33/33/33 34/34/34
f  1/1/1 34/34/34 43/43/43
f  44/44/44 43/43/43 34/34/34
f  34/34/34 35/35/35 44/44/44
f  45/45/45 44/44/44 35/35/35
f  35/35/35 37/37/37 45/45/45
f  46/46/46 45/45/45 37/37/37
f  37/37/37 39/39/39 46/46/46
f  47/47/47 46/46/46 39/39/39
f  39/39/39 41/41/41 47/47/47
f  41/41/41 39/39/39 40/40/40
f  40/40/40 42/42/42 41/41/41
f  9/9/9 11/11/11 10/10/10
f  10/10/10 8/8/8 9/9/9
f  8/8/8 10/10/10 16/16/16
f  16/16/16 15/15/15 8/8/8
f  6/6/6 8/8/8 15/15/15
f  15/15/15 14/14/14 6/6/6
f  4/4/4 6/6/6 14/14/14
f  14/14/14 13/13/13 4/4/4
f  3/3/3 4/4/4 13/13/13
f  13/13/13 12/12/12 3/3/3
f  1/1/1 3/3/3 12/12/12
f  1/1/1 2/2/2 3/3/3
f  4/4/4 3/3/3 2/2/2
f  2/2/2 5/5/5 4/4/4
f  6/6/6 4/4/4 5/5/5
f  5/5/5 7/7/7 6/6/6
f  8/8/8 6/6/6 7/7/7
f  7/7/7 9/9/9 8/8/8