# Model Researcher
# OBJ Model 2.mesh

mtllib 2.mtl

# Vertices 93
v  1.1581 -1.3118 -3.8214
v  1.4615 -0.7864 -3.8214
v  0.5148 -0.1007 -2.6595
v  0.1776 -0.5863 -2.6595
v  0.2459 -0.9453 -3.8214
v  0.6879 -0.1797 -3.8214
v  0.4341 1.1535 -2.9823
v  -0.0590 1.1535 -2.9823
v  -0.1718 0.3623 -2.6044
v  0.4697 0.2126 -2.6044
v  0.7309 0.4399 -3.8323
v  0.5800 1.4985 -3.8323
v  -0.0798 1.4985 -3.8323
v  -0.2307 0.4399 -3.8323
v  -1.6775 -0.4151 -3.8214
v  -1.3742 -0.9405 -3.8214
v  -0.3446 -0.3928 -2.7129
v  -0.5097 0.1276 -2.6595
v  -0.9040 0.1917 -3.8214
v  -0.4620 -0.5740 -3.8214
v  -0.2804 1.9477 -3.8323
v  0.1030 2.1690 -3.8323
v  1.1690 -0.0628 -3.8299
v  0.5921 0.9364 -3.8299
v  0.3652 0.5983 -2.6991
v  0.7184 -0.0134 -2.6991
v  -0.5616 0.9364 -3.8299
v  -0.3411 0.5983 -2.6991
v  0.2989 0.4834 -1.8402
v  0.5857 -0.0134 -1.8402
v  -0.2748 0.4834 -1.8402
v  0.2629 0.4211 -1.2572
v  0.5137 -0.0134 -1.2572
v  -0.2388 0.4211 -1.2572
v  -0.5616 -1.0620 -3.8299
v  0.5921 -1.0620 -3.8299
v  0.3652 -0.6251 -2.6991
v  -0.3411 -0.6251 -2.6991
v  0.2989 -0.5102 -1.8402
v  -0.2748 -0.5102 -1.8402
v  0.2629 -0.4479 -1.2572
v  -0.2388 -0.4479 -1.2572
v  -1.1385 -0.0628 -3.8299
v  -0.6943 -0.0134 -2.6991
v  -0.5616 -0.0134 -1.8402
v  -0.4896 -0.0134 -1.2572
v  0.2629 -0.4479 -1.2572
v  0.5137 -0.0134 -1.2572
v  0.0121 -0.0134 -0.8537
v  0.5137 -0.0134 -1.2572
v  0.2629 0.4211 -1.2572
v  0.6118 0.4464 -0.8961
v  0.7372 0.2291 -0.8961
v  0.7372 0.2291 -0.8961
v  0.4864 0.2291 -0.6943
v  -0.2388 0.4211 -1.2572
v  -0.4896 -0.0134 -1.2572
v  -0.7353 0.3229 -1.0027
v  -0.6366 0.4938 -1.0027
v  0.1375 -0.9141 -0.8388
v  -0.1134 -0.9141 -0.8388
v  0.0121 -0.6969 -0.6370
v  0.1375 -0.9141 -0.8388
v  0.0529 -1.1933 -0.2991
v  -0.0288 -1.1933 -0.2991
v  0.0121 -1.1225 -0.2334
v  0.0529 -1.1933 -0.2991
v  -0.8076 0.4232 -0.5525
v  -0.7753 0.4878 -0.5711
v  0.8172 0.5483 -0.2820
v  0.8842 0.4322 -0.2820
v  0.8842 0.4322 -0.2820
v  0.7501 0.4322 -0.1742
v  -0.4896 -0.0134 -1.2572
v  -0.2388 -0.4479 -1.2572
v  -0.1134 -0.9141 -0.8388
v  0.0121 -0.6969 -0.6370
v  -0.5379 0.3229 -0.8439
v  -0.7353 0.3229 -1.0027
v  -0.7130 0.4232 -0.5378
v  -0.8076 0.4232 -0.5525
v  -0.0288 -1.1933 -0.2991
v  0.0121 -1.1225 -0.2334
v  0.2629 0.4211 -1.2572
v  -0.2388 0.4211 -1.2572
v  -0.6366 0.4938 -1.0027
v  -0.5379 0.3229 -0.8439
v  0.4864 0.2291 -0.6943
v  0.6118 0.4464 -0.8961
v  0.7501 0.4322 -0.1742
v  0.8172 0.5483 -0.2820
v  -0.7753 0.4878 -0.5711
v  -0.7130 0.4232 -0.5378

# UVs 93
vt  0.5372 0.1497
vt  0.5372 0.0890
vt  0.3200 0.1024
vt  0.3200 0.1372
vt  0.3200 0.1728
vt  0.3200 0.0702
vt  0.5372 0.1497
vt  0.5372 0.0890
vt  0.3200 0.1024
vt  0.3200 0.1372
vt  0.3200 0.1852
vt  0.5372 0.1813
vt  0.5372 0.0600
vt  0.3200 0.0542
vt  0.5372 0.1497
vt  0.5372 0.0890
vt  0.3200 0.1024
vt  0.3200 0.1372
vt  0.3200 0.1728
vt  0.3200 0.0702
vt  0.6834 0.0890
vt  0.6834 0.1497
vt  0.0060 0.2002
vt  0.0060 0.1475
vt  0.3443 0.1475
vt  0.3443 0.2002
vt  0.0060 0.0929
vt  0.3443 0.0929
vt  0.7317 0.1475
vt  0.7317 0.2002
vt  0.7317 0.0929
vt  0.9949 0.1475
vt  0.9949 0.2002
vt  0.9949 0.0929
vt  0.0060 0.0929
vt  0.0060 0.1475
vt  0.3443 0.1475
vt  0.3443 0.0929
vt  0.7317 0.1475
vt  0.7317 0.0929
vt  0.9949 0.1475
vt  0.9949 0.0929
vt  0.0060 0.0366
vt  0.3443 0.0366
vt  0.7317 0.0366
vt  0.9949 0.0366
vt  0.4522 0.1489
vt  0.5548 0.1489
vt  0.5035 0.0529
vt  0.9960 0.1573
vt  0.9949 0.2002
vt  0.8581 0.1892
vt  0.8581 0.1698
vt  0.6390 0.0961
vt  0.6133 0.0481
vt  0.9949 0.0366
vt  0.9960 0.0812
vt  0.8669 0.0792
vt  0.8669 0.0371
vt  0.8802 0.1335
vt  0.8802 0.1063
vt  0.3936 0.0481
vt  0.3680 0.0961
vt  0.8802 0.1335
vt  0.8802 0.1063
vt  0.3936 0.0481
vt  0.3680 0.0961
vt  0.7585 0.0684
vt  0.7540 0.0530
vt  0.7600 0.1893
vt  0.7600 0.1713
vt  0.6390 0.0961
vt  0.6133 0.0481
vt  0.4522 0.1489
vt  0.5548 0.1489
vt  0.6390 0.0961
vt  0.6133 0.0481
vt  0.3936 0.0481
vt  0.3680 0.0961
vt  0.3936 0.0481
vt  0.3680 0.0961
vt  0.6390 0.0961
vt  0.6133 0.0481
vt  0.4522 0.1489
vt  0.5548 0.1489
vt  0.6390 0.0961
vt  0.6133 0.0481
vt  0.3936 0.0481
vt  0.3680 0.0961
vt  0.3936 0.0481
vt  0.3680 0.0961
vt  0.6390 0.0961
vt  0.6133 0.0481

# Normals 93
vn  0.3245 -0.6662 0.6715
vn  0.7803 0.0182 0.6251
vn  0.7454 -0.0601 0.6639
vn  0.3608 -0.6233 0.6937
vn  -0.3604 -0.8970 0.2560
vn  0.6167 0.7862 0.0385
vn  0.5816 0.4522 0.6762
vn  -0.6017 0.4609 0.6523
vn  -0.4711 0.4016 0.7854
vn  0.5724 0.3242 0.7532
vn  0.9652 0.1331 0.2253
vn  0.8686 0.3889 0.3070
vn  -0.9779 -0.1990 -0.0638
vn  -0.9884 0.1409 0.0563
vn  -0.7265 0.0462 0.6856
vn  -0.3540 -0.6651 0.6575
vn  -0.4291 -0.5638 0.7057
vn  -0.7137 0.0383 0.6995
vn  -0.5984 0.7628 0.2452
vn  0.3705 -0.9221 0.1115
vn  -0.7176 0.4057 0.5661
vn  0.0919 0.7141 0.6940
vn  0.9287 -0.0102 0.3706
vn  0.4757 0.8120 0.3382
vn  0.4798 0.8398 0.2540
vn  0.9622 0.0080 0.2724
vn  -0.4751 0.8134 0.3358
vn  -0.4807 0.8397 0.2527
vn  0.4952 0.8577 0.1383
vn  0.9904 -0.0000 0.1383
vn  -0.4952 0.8577 0.1383
vn  0.2933 0.9345 0.2015
vn  0.9584 -0.2274 0.1728
vn  -0.2492 0.9490 0.1932
vn  -0.4542 -0.7977 0.3968
vn  0.4547 -0.7963 0.3989
vn  0.4816 -0.8272 0.2895
vn  -0.4826 -0.8271 0.2882
vn  0.4952 -0.8577 0.1383
vn  -0.4952 -0.8577 0.1383
vn  0.6945 -0.7001 0.1660
vn  -0.6945 -0.7001 0.1660
vn  -0.9306 -0.0103 0.3660
vn  -0.9629 0.0080 0.2697
vn  -0.9904 -0.0000 0.1383
vn  -0.9461 -0.2453 0.2115
vn  0.6945 -0.7001 0.1660
vn  0.9584 -0.2274 0.1728
vn  -0.0528 0.0350 0.9980
vn  0.9584 -0.2274 0.1728
vn  0.2933 0.9345 0.2015
vn  0.1822 0.9569 -0.2259
vn  0.9102 -0.3575 -0.2093
vn  0.9102 -0.3575 -0.2093
vn  -0.4616 -0.3233 0.8261
vn  -0.2492 0.9490 0.1932
vn  -0.9461 -0.2453 0.2115
vn  -0.9196 -0.2716 -0.2839
vn  -0.2025 0.9375 -0.2830
vn  0.7698 -0.5698 -0.2877
vn  -0.7698 -0.5698 -0.2877
vn  0.0000 0.4672 0.8842
vn  0.7698 -0.5698 -0.2877
vn  0.8550 -0.5031 -0.1262
vn  -0.8550 -0.5031 -0.1262
vn  0.0000 0.6881 0.7256
vn  0.8550 -0.5031 -0.1262
vn  -0.8111 -0.5838 -0.0364
vn  -0.2780 0.9530 -0.1207
vn  -0.1155 0.9854 -0.1250
vn  0.8619 -0.5056 -0.0391
vn  0.8619 -0.5056 -0.0391
vn  -0.7498 -0.3919 0.5332
vn  -0.9461 -0.2453 0.2115
vn  -0.6945 -0.7001 0.1660
vn  -0.7698 -0.5698 -0.2877
vn  0.0000 0.4672 0.8842
vn  0.3006 -0.1444 0.9428
vn  -0.9196 -0.2716 -0.2839
vn  0.7635 -0.4238 0.4872
vn  -0.8111 -0.5838 -0.0364
vn  -0.8550 -0.5031 -0.1262
vn  0.0000 0.6881 0.7256
vn  0.2933 0.9345 0.2015
vn  -0.2492 0.9490 0.1932
vn  -0.2025 0.9375 -0.2830
vn  0.3006 -0.1444 0.9428
vn  -0.4616 -0.3233 0.8261
vn  0.1822 0.9569 -0.2259
vn  -0.7498 -0.3919 0.5332
vn  -0.1155 0.9854 -0.1250
vn  -0.2780 0.9530 -0.1207
vn  0.7635 -0.4238 0.4872

usemtl material1

# Faces 93
f  20/20/20 17/17/17 16/16/16
f  15/15/15 16/16/16 17/17/17
f  17/17/17 18/18/18 15/15/15
f  19/19/19 15/15/15 18/18/18
f  35/35/35 36/36/36 37/37/37
f  26/26/26 37/37/37 36/36/36
f  36/36/36 23/23/23 26/26/26
f  25/25/25 26/26/26 23/23/23
f  23/23/23 24/24/24 25/25/25
f  28/28/28 25/25/25 24/24/24
f  24/24/24 27/27/27 28/28/28
f  44/44/44 28/28/28 27/27/27
f  27/27/27 43/43/43 44/44/44
f  38/38/38 44/44/44 43/43/43
f  43/43/43 35/35/35 38/38/38
f  37/37/37 38/38/38 35/35/35
f  28/28/28 44/44/44 45/45/45
f  45/45/45 31/31/31 28/28/28
f  25/25/25 28/28/28 31/31/31
f  31/31/31 29/29/29 25/25/25
f  26/26/26 25/25/25 29/29/29
f  29/29/29 30/30/30 26/26/26
f  37/37/37 26/26/26 30/30/30
f  30/30/30 39/39/39 37/37/37
f  38/38/38 37/37/37 39/39/39
f  39/39/39 40/40/40 38/38/38
f  44/44/44 38/38/38 40/40/40
f  40/40/40 45/45/45 44/44/44
f  45/45/45 40/40/40 42/42/42
f  42/42/42 46/46/46 45/45/45
f  31/31/31 45/45/45 46/46/46
f  46/46/46 34/34/34 31/31/31
f  29/29/29 31/31/31 34/34/34
f  34/34/34 32/32/32 29/29/29
f  30/30/30 29/29/29 32/32/32
f  32/32/32 33/33/33 30/30/30
f  39/39/39 30/30/30 33/33/33
f  33/33/33 41/41/41 39/39/39
f  40/40/40 39/39/39 41/41/41
f  41/41/41 42/42/42 40/40/40
f  42/42/42 41/41/41 60/60/60
f  60/60/60 61/61/61 42/42/42
f  61/61/61 60/60/60 64/64/64
f  64/64/64 65/65/65 61/61/61
f  7/7/7 8/8/8 9/9/9
f  9/9/9 10/10/10 7/7/7
f  7/7/7 10/10/10 11/11/11
f  11/11/11 12/12/12 7/7/7
f  7/7/7 12/12/12 22/22/22
f  8/8/8 7/7/7 22/22/22
f  22/22/22 21/21/21 8/8/8
f  13/13/13 8/8/8 21/21/21
f  9/9/9 8/8/8 13/13/13
f  13/13/13 14/14/14 9/9/9
f  6/6/6 3/3/3 2/2/2
f  1/1/1 2/2/2 3/3/3
f  3/3/3 4/4/4 1/1/1
f  5/5/5 1/1/1 4/4/4
f  56/56/56 57/57/57 58/58/58
f  58/58/58 59/59/59 56/56/56
f  59/59/59 58/58/58 68/68/68
f  68/68/68 69/69/69 59/59/59
f  50/50/50 51/51/51 52/52/52
f  52/52/52 53/53/53 50/50/50
f  53/53/53 52/52/52 70/70/70
f  70/70/70 71/71/71 53/53/53
f  80/80/80 81/81/81 79/79/79
f  79/79/79 78/78/78 80/80/80
f  49/49/49 78/78/78 79/79/79
f  79/79/79 74/74/74 49/49/49
f  74/74/74 75/75/75 49/49/49
f  49/49/49 75/75/75 76/76/76
f  76/76/76 77/77/77 49/49/49
f  77/77/77 76/76/76 82/82/82
f  82/82/82 83/83/83 77/77/77
f  90/90/90 91/91/91 89/89/89
f  89/89/89 88/88/88 90/90/90
f  49/49/49 88/88/88 89/89/89
f  89/89/89 84/84/84 49/49/49
f  84/84/84 85/85/85 49/49/49
f  49/49/49 85/85/85 86/86/86
f  86/86/86 87/87/87 49/49/49
f  87/87/87 86/86/86 92/92/92
f  92/92/92 93/93/93 87/87/87
f  72/72/72 73/73/73 55/55/55
f  55/55/55 54/54/54 72/72/72
f  54/54/54 55/55/55 49/49/49
f  49/49/49 48/48/48 54/54/54
f  47/47/47 48/48/48 49/49/49
f  63/63/63 47/47/47 49/49/49
f  49/49/49 62/62/62 63/63/63
f  63/63/63 62/62/62 66/66/66
f  66/66/66 67/67/67 63/63/63
